# xmcd
#
# Track frame offsets:
#	150
#	13995
#	26110
#	39937
#	51477
#	63537
#	77805
#	91602
#	104762
#	118190
#	132497
#	146022
#	158187
#	170605
#	182207
#
# Disc length: 2621 seconds
#
# Revision: 0
# Processed by: cddbd v1.5.2PL0 Copyright (c) Steve Scherf et al.
# Submitted via: dBpowerAMP V4.0
#
DISCID=db0a3b0f
DTITLE=B. B. King - Made of Blues
DYEAR=1986
DGENRE=Blues
TTITLE0=I Be's Troubled
TTITLE1=Ain't Nobody's Business
TTITLE2=Black Angel Blues (Sweet Black Angel)
TTITLE3=Don't Start Me To Talkin'
TTITLE4=The Sun Is Shining
TTITLE5=Reconsider Baby
TTITLE6=Wee Wee Hours
TTITLE7=Mannish Boy
TTITLE8=My Time After A While
TTITLE9=So Many Roads
TTITLE10=One Bourbon, One Scotch, One Beer
TTITLE11=I Pity The Fool
TTITLE12=Pretty Thing
TTITLE13=I'd Rather Go Blind
TTITLE14=Ain't Nobody Home
EXTD=MCA compilation album
EXTT0=
EXTT1=
EXTT2=
EXTT3=
EXTT4=
EXTT5=
EXTT6=
EXTT7=
EXTT8=
EXTT9=
EXTT10=
EXTT11=
EXTT12=
EXTT13=
EXTT14=
PLAYORDER=
